<!--?xml version="1.0" encoding="UTF-8"?-->
<svg preserveAspectRatio="xMidYMid meet" data-bbox="0 0 1369.84 196.72" viewBox="0 0 1369.84 196.72" xmlns="http://www.w3.org/2000/svg" data-type="color" role="img">
    <g>
        <g>
            <path d="M.66 53.36c39 73.16 102.64 25.23 102.64 25.23C74.87 5.24.66 53.36.66 53.36zm14.51 4.37s50-31.36 75.38 16.55c-.01.01-39.74 34.72-75.38-16.54z" fill="#51b848" data-color="1"></path>
            <path d="M57.87 94.5a56.22 56.22 0 0 1-12.18-1.31C27.35 89.13 12 75.81.22 53.6L0 53.19l.39-.25c.36-.23 36.12-23.07 67.3-13 16.07 5.2 28.2 18.14 36.07 38.45l.14.35-.3.23c-.25.21-20.93 15.53-45.73 15.53zm-56.55-41C13 75.23 28 88.25 45.91 92.22c27.71 6.14 53.69-11.59 56.78-13.8C94.93 58.61 83.05 46 67.38 40.92 38.4 31.53 5.27 51.1 1.32 53.54zm58.07 32.77A41.56 41.56 0 0 1 54.3 86c-14.6-1.84-27.9-11.24-39.54-28l-.3-.43.44-.28c.24-.15 23.91-14.77 46.8-8.64 12.24 3.3 22.09 11.84 29.3 25.41l.19.35-.3.26c-.16.13-13.53 11.6-31.5 11.6zM15.88 57.89C27.28 74.11 40.24 83.22 54.42 85c18.49 2.28 33.22-9 35.49-10.8-7-13.1-16.61-21.36-28.47-24.53-20.74-5.58-42.2 6.25-45.56 8.22z" fill="#51b848" data-color="1"></path>
            <path d="M284.67 76h27v116.59h-27v-12.21q-16.67 15.56-35.78 15.56-24.17 0-40-17.47-15.65-17.83-15.64-44.47 0-26.2 15.68-43.68t39.25-17.47q20.34 0 36.5 16.75zm-63.9 58q0 16.75 9 27.28A29.39 29.39 0 0 0 253 171.89q15 0 24.17-10.29 9.21-10.65 9.21-27t-9.21-27q-9.26-10.5-23.97-10.5a29.77 29.77 0 0 0-23.2 10.53q-9.23 10.65-9.23 26.37z" fill="#333333" data-color="2"></path>
            <path d="M337.85 76h26.92v10.81q7.78-8.14 13.28-11 5.86-3 14.72-3 19.75 0 31.23 17.19 12.68-17.23 34.34-17.23 39.37 0 39.37 47.74v72h-27v-64.66q0-16.75-4.07-23.69t-13.8-7.06q-11.13 0-16.21 8.38t-5.09 26.92v60.19h-27v-64.38q0-31.11-17.95-31.11-11.37 0-16.57 8.5t-5.21 26.8v60.19h-26.96z" fill="#333333" data-color="2"></path>
            <path d="M609.78 76h27v116.59h-27v-12.21q-16.64 15.56-35.78 15.56-24.17 0-40-17.47-15.65-17.83-15.65-44.47 0-26.2 15.68-43.68t39.25-17.47q20.34 0 36.5 16.75zm-63.9 58q0 16.75 9 27.28a29.39 29.39 0 0 0 23.22 10.65q15 0 24.17-10.29 9.21-10.65 9.21-27t-9.21-27Q593 97.1 578.3 97.1a29.77 29.77 0 0 0-23.21 10.53q-9.22 10.65-9.21 26.37z" fill="#333333" data-color="2"></path>
            <path d="M663 76h27v10.81q14.12-14 31.83-14 20.34 0 31.71 12.81 9.81 10.89 9.81 35.54v71.44h-27v-65.1q0-17.23-4.79-23.81t-17-6.7q-13.4 0-19 8.85T690 136.35v56.24h-27z" fill="#333333" data-color="2"></path>
            <path d="M908.19 36l-22 13q-6.34-11-12.09-14.36-6-3.83-15.44-3.83-11.61 0-19.27 6.58a20.4 20.4 0 0 0-7.66 16.27q0 13.52 20.1 21.78L870.32 83q22.49 9.1 32.91 22.2t10.41 32.13q0 25.49-17 42.12t-42.48 16.75q-24.05 0-39.73-14.24-15.22-14-19.16-39.37a.78.78 0 0 1 .59-.87l26.73-5.89a.76.76 0 0 1 .91.66q1.94 15.6 6.6 21.66 8.61 12 25.13 12 13 0 21.66-8.74t8.62-22.14a31.09 31.09 0 0 0-1.5-9.87 25.08 25.08 0 0 0-4.67-8.26 37.29 37.29 0 0 0-8.2-7.06 79.16 79.16 0 0 0-12-6.28l-17.83-7.42q-37.93-16-37.93-46.91 0-20.82 15.91-34.82T859 4.51q31.6 0 49.51 30.45a.78.78 0 0 1-.32 1.04z" fill="#333333" data-color="2"></path>
            <path d="M930.2 27.85a16.68 16.68 0 0 1 5.15-12.21 17.47 17.47 0 0 1 24.77 0A16.57 16.57 0 0 1 965.26 28a17 17 0 0 1-5.15 12.44 16.72 16.72 0 0 1-13.44 5.12 17.56 17.56 0 0 1-16.47-17.71zm31 48.46v116.55h-26.93V76.31z" fill="#333333" data-color="2"></path>
            <path d="M1055.18 96.17L1032.93 108q-5.27-10.77-13-10.77a9 9 0 0 0-6.34 2.45 8.2 8.2 0 0 0-2.63 6.28q0 6.71 15.56 13.28 21.42 9.22 28.84 17t7.42 20.94a36.69 36.69 0 0 1-12.45 28.24q-12.09 10.77-29.2 10.77-29.32 0-41.52-28.6l23-10.65q4.78 8.38 7.3 10.65a16.65 16.65 0 0 0 11.73 4.55q13.64 0 13.64-12.44 0-7.17-10.5-13.38h-.06q-4.05-2-8.1-3.93t-8.26-3.95q-11.73-5.74-16.51-11.49-6.1-7.3-6.1-18.79 0-15.2 10.41-25.13a36.52 36.52 0 0 1 25.85-9.93q22.28-.02 33.17 23.07z" fill="#333333" data-color="2"></path>
            <path d="M1093.65 76.31l30.51 66.53L1152 77.58a5.55 5.55 0 0 1 10.2 0l28 65.27 30.15-66.53h30.16l-57 116.93a4.27 4.27 0 0 1-7.76-.18L1158 128.65a1 1 0 0 0-1.81 0L1128 193.06a4.3 4.3 0 0 1-7.8.16l-56.82-116.91z" fill="#333333" data-color="2"></path>
            <path d="M1342.84 76.31h27v116.55h-27v-12.21q-16.63 15.56-35.78 15.56-24.17 0-40-17.47-15.68-17.83-15.68-44.51 0-26.2 15.68-43.68t39.25-17.47q20.34 0 36.5 16.75zm-63.9 57.91q0 16.75 9 27.28a29.39 29.39 0 0 0 23.22 10.65q15 0 24.17-10.29 9.21-10.65 9.21-27t-9.21-27q-9.22-10.41-23.93-10.41a29.77 29.77 0 0 0-23.21 10.53q-9.25 10.57-9.25 26.24z" fill="#333333" data-color="2"></path>
            <path d="M909.25 35.13l-22.69 13.44q-6.36-11-12.12-14.4-6-3.84-15.48-3.84-11.64 0-19.33 6.6a20.46 20.46 0 0 0-7.68 16.33q0 13.57 20.17 21.84l18.49 7.56q22.57 9.13 33 22.27T914 137.16q0 25.57-17 42.25t-42.61 16.81q-24.13 0-39.85-14.28-15.48-14.29-19.33-40.21l28.33-6.24q1.92 16.33 6.72 22.57 8.64 12 25.21 12 13.08 0 21.73-8.76t8.64-22.21a31.22 31.22 0 0 0-1.5-9.9 25.17 25.17 0 0 0-4.68-8.28 37.45 37.45 0 0 0-8.22-7.08 79.22 79.22 0 0 0-12-6.3l-17.89-7.44Q803.49 84 803.49 53q0-20.89 16-34.93t39.7-14.15q32.05 0 50.06 31.21z" fill="#333333" data-color="2"></path>
            <path d="M854.39 196.72c-16.14 0-29.66-4.85-40.19-14.41-10.36-9.56-16.92-23.19-19.48-40.51l-.07-.46 29.35-6.47.07.55c1.26 10.74 3.49 18.25 6.62 22.32 5.64 7.84 14 11.81 24.81 11.81 8.54 0 15.73-2.9 21.37-8.61s8.5-13.07 8.5-21.86a30.85 30.85 0 0 0-1.47-9.75 24.78 24.78 0 0 0-4.59-8.12 37.14 37.14 0 0 0-8.11-7 79.06 79.06 0 0 0-11.97-6.21l-17.88-7.44C815.9 89.77 803 73.78 803 53c0-14 5.43-25.89 16.13-35.31s24.16-14.27 40.06-14.27c21.46 0 38.44 10.58 50.49 31.46l.25.43-23.55 14-.25-.44c-4.18-7.25-8.2-12-11.94-14.22-3.92-2.51-9-3.77-15.23-3.77-7.6 0-14 2.18-19 6.48a20.07 20.07 0 0 0-7.51 15.95c0 8.78 6.68 16 19.86 21.38l18.49 7.56c15.04 6.04 26.2 13.58 33.2 22.37s10.55 19.76 10.55 32.54c0 17.1-5.79 31.44-17.2 42.61s-25.94 16.95-42.96 16.95zm-58.61-54.61c2.58 16.87 9 30.14 19.1 39.46 10.33 9.39 23.63 14.15 39.51 14.15 16.75 0 31-5.61 42.26-16.66s16.9-25.07 16.9-41.9c0-12.55-3.48-23.29-10.33-31.92s-17.92-16.09-32.81-22.11l-18.49-7.56c-13.59-5.57-20.48-13.09-20.48-22.32a21 21 0 0 1 7.86-16.71c5.19-4.46 11.8-6.72 19.65-6.72 6.39 0 11.69 1.32 15.75 3.92 3.8 2.22 7.86 7 12 14.14l21.83-12.93c-11.8-20.26-28.41-30.53-49.34-30.53-15.64 0-28.9 4.72-39.4 14S804 39.3 804 53c0 20.33 12.7 36 37.75 46.59l17.87 7.41a80.05 80.05 0 0 1 12.08 6.34 38.15 38.15 0 0 1 8.33 7.18 25.79 25.79 0 0 1 4.77 8.45 31.87 31.87 0 0 1 1.53 10.06c0 9.06-3 16.65-8.79 22.56s-13.26 8.91-22.08 8.91c-11.16 0-19.78-4.11-25.61-12.21-3.18-4.13-5.45-11.62-6.75-22.25z" fill="#333333" data-color="2"></path>
            <path d="M177.44 91.92V59.08h-44.35V.5h-27.93v56.43c5.67 6.46 10.73 14.9 14.82 25.82A89.43 89.43 0 0 1 105.16 91v51.55q0 9 .77 17.84a37.68 37.68 0 0 0 5 16q4.19 7.14 13 11.64t25 4.5a97.61 97.61 0 0 0 12.26-1.09 36.44 36.44 0 0 0 12.81-3.82v-25.44a29.55 29.55 0 0 1-9.62 3.41 58.8 58.8 0 0 1-10.24.93q-8.08 0-12.26-2.95a17.56 17.56 0 0 1-6.21-7.76 32 32 0 0 1-2.28-10.81q-.31-6.05-.31-12.26V92z" fill="#333333" data-color="2"></path>
            <path d="M148.91 193.09c-10.78 0-19.26-1.53-25.21-4.56s-10.41-7-13.24-11.83a38.33 38.33 0 0 1-5-16.19c-.51-5.86-.77-11.88-.77-17.89v-51.9l.29-.13a92.65 92.65 0 0 0 14.42-8c-3.84-10.14-8.74-18.65-14.59-25.31l-.12-.14V0h28.93v58.63h44.35v33.79h-44.35v40.28c0 4.14.1 8.25.31 12.23a31.72 31.72 0 0 0 2.29 10.69 17.15 17.15 0 0 0 6 7.54c2.69 1.9 6.72 2.86 12 2.86a58.61 58.61 0 0 0 10.15-.92 29.21 29.21 0 0 0 9.46-3.35l.75-.43v26.6l-.25.14a37.09 37.09 0 0 1-13.09 3.94 97.22 97.22 0 0 1-12.33 1.09zM105.66 91.37v51.26c0 6 .26 12 .77 17.8a37.35 37.35 0 0 0 4.9 15.77c2.73 4.65 7 8.5 12.83 11.44s14.14 4.45 24.75 4.45A97.69 97.69 0 0 0 161.1 191a36.63 36.63 0 0 0 12.45-3.68V163a30.45 30.45 0 0 1-9 3.06 59.6 59.6 0 0 1-10.33.94c-5.47 0-9.69-1-12.55-3a18.14 18.14 0 0 1-6.38-8 32.72 32.72 0 0 1-2.37-11c-.21-4-.31-8.13-.31-12.28V91.47h44.35V59.58h-44.35V1h-26.95v55.74c5.94 6.81 10.91 15.5 14.79 25.83l.13.35-.31.22a90.57 90.57 0 0 1-14.61 8.23z" fill="#333333" data-color="2"></path>
        </g>
    </g>
</svg>